<svg xmlns="http://www.w3.org/2000/svg" viewBox="0 0 48 55">
<defs>
<style>.ac{stroke:#000;stroke-width:1px;fill:#202020;}</style>
</defs>
<g>
<path class="ac" d="M24.85,50.52A1.1,1.1,0,0,0,24,50.1a1.08,1.08,0,0,0-.84.42C9.86,45.8,4.65,29.32,4,27.14V18.91a1.13,1.13,0,0,0,.71-1.06.76.76,0,0,0,0-.16c3.69-2.43,5.07-7,5.54-9.19L23.14,4.56A1.11,1.11,0,0,0,24,5a1.08,1.08,0,0,0,.86-.44L37.77,8.5c.47,2.19,1.85,6.76,5.54,9.19,0,0,0,.1,0,.16A1.14,1.14,0,0,0,44,18.91v8.23c-.63,2.18-5.85,18.66-19.14,23.38"/>
</g>
</svg>